<svg width="239" height="34" viewBox="0 0 239 34" fill="none" xmlns="http://www.w3.org/2000/svg">
<path d="M154.368 30.205C154.368 30.8034 154.368 30.9394 154.768 31.3066L157.011 33.537V33.6322H147.065V29.3482C146.064 32.1716 143.416 34.0388 140.469 33.9994C135.356 33.9994 131.644 29.9194 131.644 22.4122C131.644 15.3811 135.649 10.6891 141.27 10.6891C143.762 10.5295 146.081 11.9915 147.051 14.3339V4.88238C147.088 4.66829 147.065 4.44822 146.985 4.24657C146.904 4.04493 146.77 3.86958 146.597 3.73998L144.461 1.64559V1.55039L154.368 0.367198V30.205ZM147.065 28.845V14.7419C146.712 14.293 146.261 13.9319 145.747 13.6867C145.233 13.4414 144.669 13.3185 144.101 13.3275C141.684 13.3275 139.348 15.5579 139.348 22.181C139.348 28.3826 141.364 30.5722 143.874 30.5722C144.503 30.558 145.12 30.3941 145.675 30.094C146.229 29.7938 146.706 29.3658 147.065 28.845ZM160.963 33.6322V14.5923C160.995 14.3834 160.975 14.1699 160.905 13.9706C160.835 13.7714 160.717 13.5925 160.563 13.4499L158.36 11.1379V11.0427H168.306V30.3546C168.306 30.953 168.306 31.089 168.707 31.4562L170.897 33.5506V33.6458L160.963 33.6322ZM160.603 4.07953C160.603 1.82647 162.396 0 164.608 0C166.82 0 168.613 1.82692 168.613 4.07998C168.613 6.33304 166.82 8.15996 164.608 8.15996C162.396 8.15996 160.603 6.33304 160.603 4.07998V4.07953ZM195.142 30.1642C195.142 30.7626 195.142 30.9394 195.542 31.3066L197.785 33.537V33.6322H187.785V28.7498C186.875 31.837 184.1 33.9631 180.936 33.9994C176.504 33.9994 174.128 30.7082 174.128 24.4794C174.128 21.4738 174.128 18.1827 174.221 14.4835C174.257 14.2806 174.239 14.0716 174.168 13.8781C174.098 13.6845 173.978 13.5133 173.82 13.3819L171.617 11.1379V11.0427H181.484V23.4594C181.484 27.5394 182.071 30.2594 184.581 30.2594C185.247 30.2157 185.891 30.0049 186.456 29.6462C187.02 29.2876 187.486 28.7924 187.812 28.2058V14.6059C187.844 14.397 187.823 14.1835 187.754 13.9842C187.684 13.785 187.566 13.6061 187.412 13.4635L185.195 11.1379V11.0427H195.142V30.1642ZM229 33.6322C229 32.8978 229.134 23.541 229.134 21.3922C229.134 17.3123 228.506 14.4971 225.689 14.4971C224.988 14.5203 224.302 14.7097 223.688 15.05C223.073 15.3902 222.546 15.8718 222.151 16.4555C222.434 17.7271 222.568 19.0281 222.552 20.3315C222.552 23.1602 222.458 26.7642 222.418 30.3682C222.382 30.5711 222.4 30.78 222.47 30.9736C222.541 31.1672 222.661 31.3384 222.818 31.4698L225.062 33.5642V33.6594H215.022C215.022 32.9794 215.155 23.5682 215.155 21.4194C215.155 17.2715 214.528 14.5243 211.751 14.5243C211.075 14.5503 210.417 14.7486 209.838 15.1006C209.258 15.4526 208.778 15.9469 208.44 16.5371V30.409C208.44 31.0074 208.44 31.1434 208.84 31.5106L211.03 33.605V33.7002H201.096V14.6603C201.128 14.4514 201.108 14.2379 201.038 14.0386C200.968 13.8394 200.851 13.6605 200.696 13.5179L198.493 11.1379V11.0427H208.44V15.8843C209.362 12.6883 212.301 10.5404 215.569 10.6755C218.88 10.6755 221.123 12.5523 222.071 16.1155C223.124 12.8293 226.154 10.6243 229.547 10.6755C233.98 10.6755 236.49 14.0075 236.49 20.3043C236.49 23.3098 236.397 26.737 236.357 30.341C236.318 30.5491 236.341 30.764 236.421 30.9596C236.502 31.1551 236.637 31.3229 236.81 31.4426L239 33.537V33.6322H229ZM104.048 30.6674L106.998 33.537V33.6322H92.0318V33.537L95.036 30.6674C95.1937 30.536 95.3139 30.3648 95.3843 30.1712C95.4546 29.9776 95.4727 29.7687 95.4365 29.5658V11.2195C95.4365 10.4443 95.4365 9.3971 95.5697 8.49951L85.4762 33.9998H85.3565L74.9025 10.54C74.6753 9.95515 74.6087 9.91435 74.4615 9.51996V24.9015C74.3365 25.9304 74.5081 26.9738 74.9561 27.9071L79.1613 33.5374V33.6326H68V33.5374L72.2057 27.8935C72.65 26.9639 72.8213 25.9258 72.6993 24.9015V7.90156C72.7682 7.06587 72.5203 6.23492 72.0054 5.57597L69.0283 1.64559V1.55039H79.709L88.6541 21.4199L96.5313 1.55039H106.985V1.64559L104.048 4.97758C103.875 5.10717 103.741 5.28252 103.661 5.48417C103.58 5.68581 103.557 5.90588 103.594 6.11997V29.5663C103.555 29.7745 103.578 29.9894 103.659 30.185C103.739 30.3806 103.875 30.5483 104.048 30.6679L104.048 30.6674ZM115.757 21.4738V21.569C115.757 27.3898 118.707 29.729 122.165 29.729C125.052 29.8292 127.725 28.18 128.974 25.5266H129.068C127.866 31.2794 124.368 33.9994 119.134 33.9994C113.487 33.9994 108.16 30.5314 108.16 22.4938C108.16 14.0483 113.5 10.6755 119.401 10.6755C124.155 10.6755 129.214 12.9603 129.214 20.3043V21.4738H115.757ZM115.757 20.3043H122.339V19.1211C122.339 13.1371 121.124 11.5459 119.295 11.5459C117.078 11.5459 115.73 13.9259 115.73 20.3043H115.757Z" fill="black"/>
<path d="M17.2039 0C26.7058 0 34.4078 7.61171 34.4078 17.0002C34.4078 26.389 26.7051 34 17.2039 34C7.70316 34 0 26.389 0 17.0002C0 7.61194 7.70244 0 17.2039 0ZM44.6777 0.995749C49.4286 0.995749 53.2799 8.16056 53.2799 17.0002H53.2806C53.2806 25.8378 49.4293 33.0047 44.6787 33.0047C39.9281 33.0047 36.0765 25.8378 36.0765 17.0002C36.0765 8.1629 39.9271 0.995749 44.678 0.995749H44.6777ZM57.9745 2.66289C59.6451 2.66289 61 9.08194 61 17.0005C61 24.9164 59.6456 31.338 57.9745 31.338C56.3035 31.338 54.9498 24.9183 54.9498 17.0005C54.9498 9.08241 56.3042 2.66289 57.9745 2.66289Z" fill="black"/>
</svg>
